<svg width="50" height="50" viewBox="0 0 50 50" fill="none" xmlns="http://www.w3.org/2000/svg">
<path d="M26.625 8.5625C26.625 7.69956 25.9254 7 25.0625 7C24.1996 7 23.5 7.69956 23.5 8.5625V27.8333H12.5625C11.9304 27.8333 11.3608 28.214 11.119 28.7979C10.8771 29.3817 11.0106 30.0537 11.4575 30.5006L23.9575 43.0006C24.2506 43.2937 24.6481 43.4583 25.0625 43.4583C25.4769 43.4583 25.8744 43.2937 26.1673 43.0006L38.6673 30.5006C39.1142 30.0537 39.2479 29.3817 39.006 28.7979C38.7642 28.214 38.1944 27.8333 37.5625 27.8333H26.625V8.5625Z" fill="#07002F"/>
</svg>
