<svg width="25" height="25" viewBox="0 0 25 25" fill="none" xmlns="http://www.w3.org/2000/svg">
<path fill-rule="evenodd" clip-rule="evenodd" d="M13.4167 23.8333C19.1696 23.8333 23.8333 19.1696 23.8333 13.4167C23.8333 7.6637 19.1696 3 13.4167 3C7.6637 3 3 7.6637 3 13.4167C3 19.1696 7.6637 23.8333 13.4167 23.8333ZM11.3017 9.73924C11.6069 9.43415 12.1015 9.43415 12.4066 9.73924L15.5316 12.8643C15.8367 13.1694 15.8367 13.664 15.5316 13.9691L12.4066 17.0941C12.1015 17.3992 11.6069 17.3992 11.3017 17.0941C10.9966 16.789 10.9966 16.2944 11.3017 15.9893L13.8743 13.4167L11.3017 10.8441C10.9966 10.539 10.9966 10.0443 11.3017 9.73924Z" fill="#0E034D"/>
</svg>
