<svg width="50" height="50" viewBox="0 0 50 50" fill="none" xmlns="http://www.w3.org/2000/svg">
<path fill-rule="evenodd" clip-rule="evenodd" d="M24.8334 3.99996C13.3276 3.99996 4.00008 13.3275 4.00008 24.8333C4.00008 36.3392 13.3276 45.6666 24.8334 45.6666C36.3394 45.6666 45.6667 36.3392 45.6667 24.8333C45.6667 13.3275 36.3394 3.99996 24.8334 3.99996ZM29.0633 32.1881C28.453 32.7983 27.4638 32.7983 26.8536 32.1881L20.6036 25.9381C19.9934 25.3279 19.9934 24.3387 20.6036 23.7285L26.8536 17.4785C27.4638 16.8683 28.453 16.8683 29.0633 17.4785C29.6735 18.0887 29.6735 19.0779 29.0633 19.6881L23.9182 24.8333L29.0633 29.9784C29.6735 30.5886 29.6735 31.578 29.0633 32.1881Z" fill="#A38EFF"/>
</svg>
