<svg width="50" height="50" viewBox="0 0 50 50" fill="none" xmlns="http://www.w3.org/2000/svg">
<path fill-rule="evenodd" clip-rule="evenodd" d="M45.6667 24.8333C45.6667 36.3392 36.3392 45.6667 24.8333 45.6667C13.3274 45.6667 4 36.3392 4 24.8333C4 13.3274 13.3274 4 24.8333 4C36.3392 4 45.6667 13.3274 45.6667 24.8333ZM18.5201 18.5201C19.1302 17.9099 20.1196 17.9099 20.7298 18.5201L24.8333 22.6235L28.9367 18.5201C29.5469 17.91 30.5362 17.91 31.1465 18.5201C31.7567 19.1303 31.7567 20.1197 31.1465 20.7298L27.0429 24.8333L31.1465 28.9367C31.7567 29.5469 31.7567 30.5362 31.1465 31.1465C30.5362 31.7567 29.5469 31.7567 28.9367 31.1465L24.8333 27.0431L20.7298 31.1465C20.1196 31.7567 19.1303 31.7567 18.5201 31.1465C17.9099 30.5362 17.9099 29.5469 18.5201 28.9369L22.6235 24.8333L18.5201 20.7298C17.9099 20.1196 17.9099 19.1303 18.5201 18.5201Z" fill="#A38EFF"/>
</svg>
