<svg width="200" height="225" viewBox="0 0 200 225" fill="none" xmlns="http://www.w3.org/2000/svg">
<path d="M12.5001 97.9166C18.253 97.9166 22.9167 93.2529 22.9167 87.5C22.9167 84.9047 21.9677 82.5311 20.3976 80.7073L5.7074 95.3975C7.53117 96.9676 9.90477 97.9166 12.5001 97.9166Z" fill="#735AE3"/>
<path d="M12.5 77.0833C6.74707 77.0833 2.08337 81.747 2.08337 87.5C2.08337 90.0953 3.03248 92.4688 4.60253 94.2926L19.2926 79.6025C17.4689 78.0324 15.0954 77.0833 12.5 77.0833Z" fill="#735AE3"/>
<path d="M112.5 97.9166C118.253 97.9166 122.917 93.2529 122.917 87.5C122.917 84.9047 121.968 82.5311 120.398 80.7073L105.707 95.3975C107.531 96.9676 109.905 97.9166 112.5 97.9166Z" fill="#735AE3"/>
<path d="M112.5 77.0833C106.747 77.0833 102.083 81.747 102.083 87.5C102.083 90.0953 103.032 92.4688 104.603 94.2926L119.293 79.6025C117.469 78.0324 115.095 77.0833 112.5 77.0833Z" fill="#735AE3"/>
<path d="M12.5001 197.917C18.253 197.917 22.9167 193.253 22.9167 187.5C22.9167 184.905 21.9677 182.531 20.3976 180.707L5.7074 195.397C7.53117 196.968 9.90477 197.917 12.5001 197.917Z" fill="#735AE3"/>
<path d="M12.5 177.083C6.74707 177.083 2.08337 181.747 2.08337 187.5C2.08337 190.095 3.03248 192.469 4.60253 194.293L19.2926 179.602C17.4689 178.032 15.0954 177.083 12.5 177.083Z" fill="#735AE3"/>
<path d="M12.5001 222.917C18.253 222.917 22.9167 218.253 22.9167 212.5C22.9167 209.905 21.9677 207.531 20.3976 205.707L5.7074 220.397C7.53117 221.968 9.90477 222.917 12.5001 222.917Z" fill="#735AE3"/>
<path d="M12.5 202.083C6.74707 202.083 2.08337 206.747 2.08337 212.5C2.08337 215.095 3.03248 217.469 4.60253 219.293L19.2926 204.602C17.4689 203.032 15.0954 202.083 12.5 202.083Z" fill="#735AE3"/>
<path d="M87.5001 147.917C93.253 147.917 97.9167 143.253 97.9167 137.5C97.9167 134.905 96.9677 132.531 95.3976 130.707L80.7074 145.397C82.5312 146.968 84.9048 147.917 87.5001 147.917Z" fill="#735AE3"/>
<path d="M87.5 127.083C81.7471 127.083 77.0834 131.747 77.0834 137.5C77.0834 140.095 78.0325 142.469 79.6025 144.293L94.2926 129.602C92.4689 128.032 90.0954 127.083 87.5 127.083Z" fill="#735AE3"/>
<path d="M62.5001 197.917C68.253 197.917 72.9167 193.253 72.9167 187.5C72.9167 184.905 71.9677 182.531 70.3976 180.707L55.7074 195.397C57.5312 196.968 59.9048 197.917 62.5001 197.917Z" fill="#735AE3"/>
<path d="M62.5 177.083C56.7471 177.083 52.0834 181.747 52.0834 187.5C52.0834 190.095 53.0325 192.469 54.6025 194.293L69.2926 179.602C67.4689 178.032 65.0954 177.083 62.5 177.083Z" fill="#735AE3"/>
<path d="M62.5001 222.917C68.253 222.917 72.9167 218.253 72.9167 212.5C72.9167 209.905 71.9677 207.531 70.3976 205.707L55.7074 220.397C57.5312 221.968 59.9048 222.917 62.5001 222.917Z" fill="#735AE3"/>
<path d="M62.5 202.083C56.7471 202.083 52.0834 206.747 52.0834 212.5C52.0834 215.095 53.0325 217.469 54.6025 219.293L69.2926 204.602C67.4689 203.032 65.0954 202.083 62.5 202.083Z" fill="#735AE3"/>
<path d="M137.5 147.917C143.253 147.917 147.917 143.253 147.917 137.5C147.917 134.905 146.968 132.531 145.398 130.707L130.707 145.397C132.531 146.968 134.905 147.917 137.5 147.917Z" fill="#735AE3"/>
<path d="M137.5 127.083C131.747 127.083 127.083 131.747 127.083 137.5C127.083 140.095 128.032 142.469 129.603 144.293L144.293 129.602C142.469 128.032 140.095 127.083 137.5 127.083Z" fill="#735AE3"/>
<path d="M37.5001 197.917C43.253 197.917 47.9167 193.253 47.9167 187.5C47.9167 184.905 46.9677 182.531 45.3976 180.707L30.7074 195.397C32.5312 196.968 34.9048 197.917 37.5001 197.917Z" fill="#735AE3"/>
<path d="M37.5 177.083C31.7471 177.083 27.0834 181.747 27.0834 187.5C27.0834 190.095 28.0325 192.469 29.6025 194.293L44.2926 179.602C42.4689 178.032 40.0954 177.083 37.5 177.083Z" fill="#735AE3"/>
<path d="M37.5001 222.917C43.253 222.917 47.9167 218.253 47.9167 212.5C47.9167 209.905 46.9677 207.531 45.3976 205.707L30.7074 220.397C32.5312 221.968 34.9048 222.917 37.5001 222.917Z" fill="#735AE3"/>
<path d="M37.5 202.083C31.7471 202.083 27.0834 206.747 27.0834 212.5C27.0834 215.095 28.0325 217.469 29.6025 219.293L44.2926 204.602C42.4689 203.032 40.0954 202.083 37.5 202.083Z" fill="#735AE3"/>
<path d="M112.5 147.917C118.253 147.917 122.917 143.253 122.917 137.5C122.917 134.905 121.968 132.531 120.398 130.707L105.707 145.397C107.531 146.968 109.905 147.917 112.5 147.917Z" fill="#735AE3"/>
<path d="M112.5 127.083C106.747 127.083 102.083 131.747 102.083 137.5C102.083 140.095 103.032 142.469 104.603 144.293L119.293 129.602C117.469 128.032 115.095 127.083 112.5 127.083Z" fill="#735AE3"/>
<path d="M62.5001 97.9166C68.253 97.9166 72.9167 93.2529 72.9167 87.5C72.9167 84.9047 71.9677 82.5311 70.3976 80.7073L55.7074 95.3975C57.5312 96.9676 59.9048 97.9166 62.5001 97.9166Z" fill="#735AE3"/>
<path d="M62.5 77.0833C56.7471 77.0833 52.0834 81.747 52.0834 87.5C52.0834 90.0953 53.0325 92.4688 54.6025 94.2926L69.2926 79.6025C67.4689 78.0324 65.0954 77.0833 62.5 77.0833Z" fill="#735AE3"/>
<path d="M12.5001 72.9166C18.253 72.9166 22.9167 68.2529 22.9167 62.5C22.9167 59.9047 21.9677 57.5311 20.3976 55.7073L5.7074 70.3975C7.53117 71.9676 9.90477 72.9166 12.5001 72.9166Z" fill="#735AE3"/>
<path d="M12.5 52.0833C6.74707 52.0833 2.08337 56.747 2.08337 62.5C2.08337 65.0953 3.03248 67.4688 4.60253 69.2926L19.2926 54.6025C17.4689 53.0324 15.0954 52.0833 12.5 52.0833Z" fill="#735AE3"/>
<path d="M112.5 72.9166C118.253 72.9166 122.917 68.2529 122.917 62.5C122.917 59.9047 121.968 57.5311 120.398 55.7073L105.707 70.3975C107.531 71.9676 109.905 72.9166 112.5 72.9166Z" fill="#735AE3"/>
<path d="M112.5 52.0833C106.747 52.0833 102.083 56.747 102.083 62.5C102.083 65.0953 103.032 67.4688 104.603 69.2926L119.293 54.6025C117.469 53.0324 115.095 52.0833 112.5 52.0833Z" fill="#735AE3"/>
<path d="M12.5001 172.917C18.253 172.917 22.9167 168.253 22.9167 162.5C22.9167 159.905 21.9677 157.531 20.3976 155.707L5.7074 170.397C7.53117 171.968 9.90477 172.917 12.5001 172.917Z" fill="#735AE3"/>
<path d="M12.5 152.083C6.74707 152.083 2.08337 156.747 2.08337 162.5C2.08337 165.095 3.03248 167.469 4.60253 169.293L19.2926 154.602C17.4689 153.032 15.0954 152.083 12.5 152.083Z" fill="#735AE3"/>
<path d="M62.5001 172.917C68.253 172.917 72.9167 168.253 72.9167 162.5C72.9167 159.905 71.9677 157.531 70.3976 155.707L55.7074 170.397C57.5312 171.968 59.9048 172.917 62.5001 172.917Z" fill="#735AE3"/>
<path d="M62.5 152.083C56.7471 152.083 52.0834 156.747 52.0834 162.5C52.0834 165.095 53.0325 167.469 54.6025 169.293L69.2926 154.602C67.4689 153.032 65.0954 152.083 62.5 152.083Z" fill="#735AE3"/>
<path d="M62.5001 72.9166C68.253 72.9166 72.9167 68.2529 72.9167 62.5C72.9167 59.9047 71.9677 57.5311 70.3976 55.7073L55.7074 70.3975C57.5312 71.9676 59.9048 72.9166 62.5001 72.9166Z" fill="#735AE3"/>
<path d="M62.5 52.0833C56.7471 52.0833 52.0834 56.747 52.0834 62.5C52.0834 65.0953 53.0325 67.4688 54.6025 69.2926L69.2926 54.6025C67.4689 53.0324 65.0954 52.0833 62.5 52.0833Z" fill="#735AE3"/>
<path d="M162.5 72.9166C168.253 72.9166 172.917 68.2529 172.917 62.5C172.917 59.9047 171.968 57.5311 170.398 55.7073L155.707 70.3975C157.531 71.9676 159.905 72.9166 162.5 72.9166Z" fill="#735AE3"/>
<path d="M162.5 52.0833C156.747 52.0833 152.083 56.747 152.083 62.5C152.083 65.0953 153.032 67.4688 154.603 69.2926L169.293 54.6025C167.469 53.0324 165.095 52.0833 162.5 52.0833Z" fill="#735AE3"/>
<path d="M12.5001 22.9166C18.253 22.9166 22.9167 18.2529 22.9167 12.5C22.9167 9.9047 21.9677 7.5311 20.3976 5.70734L5.7074 20.3975C7.53117 21.9676 9.90477 22.9166 12.5001 22.9166Z" fill="#735AE3"/>
<path d="M12.5 2.08331C6.74707 2.08331 2.08337 6.74701 2.08337 12.5C2.08337 15.0953 3.03248 17.4688 4.60253 19.2926L19.2926 4.60247C17.4689 3.03242 15.0954 2.08331 12.5 2.08331Z" fill="#735AE3"/>
<path d="M112.5 22.9166C118.253 22.9166 122.917 18.2529 122.917 12.5C122.917 9.9047 121.968 7.5311 120.398 5.70734L105.707 20.3975C107.531 21.9676 109.905 22.9166 112.5 22.9166Z" fill="#735AE3"/>
<path d="M112.5 2.08331C106.747 2.08331 102.083 6.74701 102.083 12.5C102.083 15.0953 103.032 17.4688 104.603 19.2926L119.293 4.60247C117.469 3.03242 115.095 2.08331 112.5 2.08331Z" fill="#735AE3"/>
<path d="M12.5001 122.917C18.253 122.917 22.9167 118.253 22.9167 112.5C22.9167 109.905 21.9677 107.531 20.3976 105.707L5.7074 120.397C7.53117 121.968 9.90477 122.917 12.5001 122.917Z" fill="#735AE3"/>
<path d="M12.5 102.083C6.74707 102.083 2.08337 106.747 2.08337 112.5C2.08337 115.095 3.03248 117.469 4.60253 119.293L19.2926 104.602C17.4689 103.032 15.0954 102.083 12.5 102.083Z" fill="#735AE3"/>
<path d="M62.5001 122.917C68.253 122.917 72.9167 118.253 72.9167 112.5C72.9167 109.905 71.9677 107.531 70.3976 105.707L55.7074 120.397C57.5312 121.968 59.9048 122.917 62.5001 122.917Z" fill="#735AE3"/>
<path d="M62.5 102.083C56.7471 102.083 52.0834 106.747 52.0834 112.5C52.0834 115.095 53.0325 117.469 54.6025 119.293L69.2926 104.602C67.4689 103.032 65.0954 102.083 62.5 102.083Z" fill="#735AE3"/>
<path d="M112.5 122.917C118.253 122.917 122.917 118.253 122.917 112.5C122.917 109.905 121.968 107.531 120.398 105.707L105.707 120.397C107.531 121.968 109.905 122.917 112.5 122.917Z" fill="#735AE3"/>
<path d="M112.5 102.083C106.747 102.083 102.083 106.747 102.083 112.5C102.083 115.095 103.032 117.469 104.603 119.293L119.293 104.602C117.469 103.032 115.095 102.083 112.5 102.083Z" fill="#735AE3"/>
<path d="M62.5001 22.9166C68.253 22.9166 72.9167 18.2529 72.9167 12.5C72.9167 9.9047 71.9677 7.5311 70.3976 5.70734L55.7074 20.3975C57.5312 21.9676 59.9048 22.9166 62.5001 22.9166Z" fill="#735AE3"/>
<path d="M62.5 2.08331C56.7471 2.08331 52.0834 6.74701 52.0834 12.5C52.0834 15.0953 53.0325 17.4688 54.6025 19.2926L69.2926 4.60247C67.4689 3.03242 65.0954 2.08331 62.5 2.08331Z" fill="#735AE3"/>
<path d="M162.5 22.9166C168.253 22.9166 172.917 18.2529 172.917 12.5C172.917 9.9047 171.968 7.5311 170.398 5.70734L155.707 20.3975C157.531 21.9676 159.905 22.9166 162.5 22.9166Z" fill="#735AE3"/>
<path d="M162.5 2.08331C156.747 2.08331 152.083 6.74701 152.083 12.5C152.083 15.0953 153.032 17.4688 154.603 19.2926L169.293 4.60247C167.469 3.03242 165.095 2.08331 162.5 2.08331Z" fill="#735AE3"/>
<path d="M12.5001 47.9166C18.253 47.9166 22.9167 43.2529 22.9167 37.5C22.9167 34.9047 21.9677 32.5311 20.3976 30.7073L5.7074 45.3975C7.53117 46.9676 9.90477 47.9166 12.5001 47.9166Z" fill="#735AE3"/>
<path d="M12.5 27.0833C6.74707 27.0833 2.08337 31.747 2.08337 37.5C2.08337 40.0953 3.03248 42.4688 4.60253 44.2926L19.2926 29.6025C17.4689 28.0324 15.0954 27.0833 12.5 27.0833Z" fill="#735AE3"/>
<path d="M112.5 47.9166C118.253 47.9166 122.917 43.2529 122.917 37.5C122.917 34.9047 121.968 32.5311 120.398 30.7073L105.707 45.3975C107.531 46.9676 109.905 47.9166 112.5 47.9166Z" fill="#735AE3"/>
<path d="M112.5 27.0833C106.747 27.0833 102.083 31.747 102.083 37.5C102.083 40.0953 103.032 42.4688 104.603 44.2926L119.293 29.6025C117.469 28.0324 115.095 27.0833 112.5 27.0833Z" fill="#735AE3"/>
<path d="M12.5001 147.917C18.253 147.917 22.9167 143.253 22.9167 137.5C22.9167 134.905 21.9677 132.531 20.3976 130.707L5.7074 145.397C7.53117 146.968 9.90477 147.917 12.5001 147.917Z" fill="#735AE3"/>
<path d="M12.5 127.083C6.74707 127.083 2.08337 131.747 2.08337 137.5C2.08337 140.095 3.03248 142.469 4.60253 144.293L19.2926 129.602C17.4689 128.032 15.0954 127.083 12.5 127.083Z" fill="#735AE3"/>
<path d="M62.5001 147.917C68.253 147.917 72.9167 143.253 72.9167 137.5C72.9167 134.905 71.9677 132.531 70.3976 130.707L55.7074 145.397C57.5312 146.968 59.9048 147.917 62.5001 147.917Z" fill="#735AE3"/>
<path d="M62.5 127.083C56.7471 127.083 52.0834 131.747 52.0834 137.5C52.0834 140.095 53.0325 142.469 54.6025 144.293L69.2926 129.602C67.4689 128.032 65.0954 127.083 62.5 127.083Z" fill="#735AE3"/>
<path d="M62.5001 47.9166C68.253 47.9166 72.9167 43.2529 72.9167 37.5C72.9167 34.9047 71.9677 32.5311 70.3976 30.7073L55.7074 45.3975C57.5312 46.9676 59.9048 47.9166 62.5001 47.9166Z" fill="#735AE3"/>
<path d="M62.5 27.0833C56.7471 27.0833 52.0834 31.747 52.0834 37.5C52.0834 40.0953 53.0325 42.4688 54.6025 44.2926L69.2926 29.6025C67.4689 28.0324 65.0954 27.0833 62.5 27.0833Z" fill="#735AE3"/>
<path d="M162.5 47.9166C168.253 47.9166 172.917 43.2529 172.917 37.5C172.917 34.9047 171.968 32.5311 170.398 30.7073L155.707 45.3975C157.531 46.9676 159.905 47.9166 162.5 47.9166Z" fill="#735AE3"/>
<path d="M162.5 27.0833C156.747 27.0833 152.083 31.747 152.083 37.5C152.083 40.0953 153.032 42.4688 154.603 44.2926L169.293 29.6025C167.469 28.0324 165.095 27.0833 162.5 27.0833Z" fill="#735AE3"/>
<path d="M37.5001 22.9166C43.253 22.9166 47.9167 18.2529 47.9167 12.5C47.9167 9.9047 46.9677 7.5311 45.3976 5.70734L30.7074 20.3975C32.5312 21.9676 34.9048 22.9166 37.5001 22.9166Z" fill="#735AE3"/>
<path d="M37.5 2.08331C31.7471 2.08331 27.0834 6.74701 27.0834 12.5C27.0834 15.0953 28.0325 17.4688 29.6025 19.2926L44.2926 4.60247C42.4689 3.03242 40.0954 2.08331 37.5 2.08331Z" fill="#735AE3"/>
<path d="M137.5 22.9166C143.253 22.9166 147.917 18.2529 147.917 12.5C147.917 9.9047 146.968 7.5311 145.398 5.70734L130.707 20.3975C132.531 21.9676 134.905 22.9166 137.5 22.9166Z" fill="#735AE3"/>
<path d="M137.5 2.08331C131.747 2.08331 127.083 6.74701 127.083 12.5C127.083 15.0953 128.032 17.4688 129.603 19.2926L144.293 4.60247C142.469 3.03242 140.095 2.08331 137.5 2.08331Z" fill="#735AE3"/>
<path d="M37.5001 122.917C43.253 122.917 47.9167 118.253 47.9167 112.5C47.9167 109.905 46.9677 107.531 45.3976 105.707L30.7074 120.397C32.5312 121.968 34.9048 122.917 37.5001 122.917Z" fill="#735AE3"/>
<path d="M37.5 102.083C31.7471 102.083 27.0834 106.747 27.0834 112.5C27.0834 115.095 28.0325 117.469 29.6025 119.293L44.2926 104.602C42.4689 103.032 40.0954 102.083 37.5 102.083Z" fill="#735AE3"/>
<path d="M87.5001 122.917C93.253 122.917 97.9167 118.253 97.9167 112.5C97.9167 109.905 96.9677 107.531 95.3976 105.707L80.7074 120.397C82.5312 121.968 84.9048 122.917 87.5001 122.917Z" fill="#735AE3"/>
<path d="M87.5 102.083C81.7471 102.083 77.0834 106.747 77.0834 112.5C77.0834 115.095 78.0325 117.469 79.6025 119.293L94.2926 104.602C92.4689 103.032 90.0954 102.083 87.5 102.083Z" fill="#735AE3"/>
<path d="M137.5 122.917C143.253 122.917 147.917 118.253 147.917 112.5C147.917 109.905 146.968 107.531 145.398 105.707L130.707 120.397C132.531 121.968 134.905 122.917 137.5 122.917Z" fill="#735AE3"/>
<path d="M137.5 102.083C131.747 102.083 127.083 106.747 127.083 112.5C127.083 115.095 128.032 117.469 129.603 119.293L144.293 104.602C142.469 103.032 140.095 102.083 137.5 102.083Z" fill="#735AE3"/>
<path d="M87.5001 22.9166C93.253 22.9166 97.9167 18.2529 97.9167 12.5C97.9167 9.9047 96.9677 7.5311 95.3976 5.70734L80.7074 20.3975C82.5312 21.9676 84.9048 22.9166 87.5001 22.9166Z" fill="#735AE3"/>
<path d="M87.5 2.08331C81.7471 2.08331 77.0834 6.74701 77.0834 12.5C77.0834 15.0953 78.0325 17.4688 79.6025 19.2926L94.2926 4.60247C92.4689 3.03242 90.0954 2.08331 87.5 2.08331Z" fill="#735AE3"/>
<path d="M187.5 22.9166C193.253 22.9166 197.917 18.2529 197.917 12.5C197.917 9.9047 196.968 7.5311 195.398 5.70734L180.707 20.3975C182.531 21.9676 184.905 22.9166 187.5 22.9166Z" fill="#735AE3"/>
<path d="M187.5 2.08331C181.747 2.08331 177.083 6.74701 177.083 12.5C177.083 15.0953 178.032 17.4688 179.603 19.2926L194.293 4.60247C192.469 3.03242 190.095 2.08331 187.5 2.08331Z" fill="#735AE3"/>
<path d="M37.5001 72.9166C43.253 72.9166 47.9167 68.2529 47.9167 62.5C47.9167 59.9047 46.9677 57.5311 45.3976 55.7073L30.7074 70.3975C32.5312 71.9676 34.9048 72.9166 37.5001 72.9166Z" fill="#735AE3"/>
<path d="M37.5 52.0833C31.7471 52.0833 27.0834 56.747 27.0834 62.5C27.0834 65.0953 28.0325 67.4688 29.6025 69.2926L44.2926 54.6025C42.4689 53.0324 40.0954 52.0833 37.5 52.0833Z" fill="#735AE3"/>
<path d="M137.5 72.9166C143.253 72.9166 147.917 68.2529 147.917 62.5C147.917 59.9047 146.968 57.5311 145.398 55.7073L130.707 70.3975C132.531 71.9676 134.905 72.9166 137.5 72.9166Z" fill="#735AE3"/>
<path d="M137.5 52.0833C131.747 52.0833 127.083 56.747 127.083 62.5C127.083 65.0953 128.032 67.4688 129.603 69.2926L144.293 54.6025C142.469 53.0324 140.095 52.0833 137.5 52.0833Z" fill="#735AE3"/>
<path d="M37.5001 172.917C43.253 172.917 47.9167 168.253 47.9167 162.5C47.9167 159.905 46.9677 157.531 45.3976 155.707L30.7074 170.397C32.5312 171.968 34.9048 172.917 37.5001 172.917Z" fill="#735AE3"/>
<path d="M37.5 152.083C31.7471 152.083 27.0834 156.747 27.0834 162.5C27.0834 165.095 28.0325 167.469 29.6025 169.293L44.2926 154.602C42.4689 153.032 40.0954 152.083 37.5 152.083Z" fill="#735AE3"/>
<path d="M87.5001 72.9166C93.253 72.9166 97.9167 68.2529 97.9167 62.5C97.9167 59.9047 96.9677 57.5311 95.3976 55.7073L80.7074 70.3975C82.5312 71.9676 84.9048 72.9166 87.5001 72.9166Z" fill="#735AE3"/>
<path d="M87.5 52.0833C81.7471 52.0833 77.0834 56.747 77.0834 62.5C77.0834 65.0953 78.0325 67.4688 79.6025 69.2926L94.2926 54.6025C92.4689 53.0324 90.0954 52.0833 87.5 52.0833Z" fill="#735AE3"/>
<path d="M187.5 72.9166C193.253 72.9166 197.917 68.2529 197.917 62.5C197.917 59.9047 196.968 57.5311 195.398 55.7073L180.707 70.3975C182.531 71.9676 184.905 72.9166 187.5 72.9166Z" fill="#735AE3"/>
<path d="M187.5 52.0833C181.747 52.0833 177.083 56.747 177.083 62.5C177.083 65.0953 178.032 67.4688 179.603 69.2926L194.293 54.6025C192.469 53.0324 190.095 52.0833 187.5 52.0833Z" fill="#735AE3"/>
<path d="M37.5001 47.9166C43.253 47.9166 47.9167 43.2529 47.9167 37.5C47.9167 34.9047 46.9677 32.5311 45.3976 30.7073L30.7074 45.3975C32.5312 46.9676 34.9048 47.9166 37.5001 47.9166Z" fill="#735AE3"/>
<path d="M37.5 27.0833C31.7471 27.0833 27.0834 31.747 27.0834 37.5C27.0834 40.0953 28.0325 42.4688 29.6025 44.2926L44.2926 29.6025C42.4689 28.0324 40.0954 27.0833 37.5 27.0833Z" fill="#735AE3"/>
<path d="M137.5 47.9166C143.253 47.9166 147.917 43.2529 147.917 37.5C147.917 34.9047 146.968 32.5311 145.398 30.7073L130.707 45.3975C132.531 46.9676 134.905 47.9166 137.5 47.9166Z" fill="#735AE3"/>
<path d="M137.5 27.0833C131.747 27.0833 127.083 31.747 127.083 37.5C127.083 40.0953 128.032 42.4688 129.603 44.2926L144.293 29.6025C142.469 28.0324 140.095 27.0833 137.5 27.0833Z" fill="#735AE3"/>
<path d="M37.5001 147.917C43.253 147.917 47.9167 143.253 47.9167 137.5C47.9167 134.905 46.9677 132.531 45.3976 130.707L30.7074 145.397C32.5312 146.968 34.9048 147.917 37.5001 147.917Z" fill="#735AE3"/>
<path d="M37.5 127.083C31.7471 127.083 27.0834 131.747 27.0834 137.5C27.0834 140.095 28.0325 142.469 29.6025 144.293L44.2926 129.602C42.4689 128.032 40.0954 127.083 37.5 127.083Z" fill="#735AE3"/>
<path d="M87.5001 47.9166C93.253 47.9166 97.9167 43.2529 97.9167 37.5C97.9167 34.9047 96.9677 32.5311 95.3976 30.7073L80.7074 45.3975C82.5312 46.9676 84.9048 47.9166 87.5001 47.9166Z" fill="#735AE3"/>
<path d="M87.5 27.0833C81.7471 27.0833 77.0834 31.747 77.0834 37.5C77.0834 40.0953 78.0325 42.4688 79.6025 44.2926L94.2926 29.6025C92.4689 28.0324 90.0954 27.0833 87.5 27.0833Z" fill="#735AE3"/>
<path d="M187.5 47.9166C193.253 47.9166 197.917 43.2529 197.917 37.5C197.917 34.9047 196.968 32.5311 195.398 30.7073L180.707 45.3975C182.531 46.9676 184.905 47.9166 187.5 47.9166Z" fill="#735AE3"/>
<path d="M187.5 27.0833C181.747 27.0833 177.083 31.747 177.083 37.5C177.083 40.0953 178.032 42.4688 179.603 44.2926L194.293 29.6025C192.469 28.0324 190.095 27.0833 187.5 27.0833Z" fill="#735AE3"/>
<path d="M37.5001 97.9166C43.253 97.9166 47.9167 93.2529 47.9167 87.5C47.9167 84.9047 46.9677 82.5311 45.3976 80.7073L30.7074 95.3975C32.5312 96.9676 34.9048 97.9166 37.5001 97.9166Z" fill="#735AE3"/>
<path d="M37.5 77.0833C31.7471 77.0833 27.0834 81.747 27.0834 87.5C27.0834 90.0953 28.0325 92.4688 29.6025 94.2926L44.2926 79.6025C42.4689 78.0324 40.0954 77.0833 37.5 77.0833Z" fill="#735AE3"/>
<path d="M137.5 97.9166C143.253 97.9166 147.917 93.2529 147.917 87.5C147.917 84.9047 146.968 82.5311 145.398 80.7073L130.707 95.3975C132.531 96.9676 134.905 97.9166 137.5 97.9166Z" fill="#735AE3"/>
<path d="M137.5 77.0833C131.747 77.0833 127.083 81.747 127.083 87.5C127.083 90.0953 128.032 92.4688 129.603 94.2926L144.293 79.6025C142.469 78.0324 140.095 77.0833 137.5 77.0833Z" fill="#735AE3"/>
<path d="M87.5001 97.9166C93.253 97.9166 97.9167 93.2529 97.9167 87.5C97.9167 84.9047 96.9677 82.5311 95.3976 80.7073L80.7074 95.3975C82.5312 96.9676 84.9048 97.9166 87.5001 97.9166Z" fill="#735AE3"/>
<path d="M87.5 77.0833C81.7471 77.0833 77.0834 81.747 77.0834 87.5C77.0834 90.0953 78.0325 92.4688 79.6025 94.2926L94.2926 79.6025C92.4689 78.0324 90.0954 77.0833 87.5 77.0833Z" fill="#735AE3"/>
</svg>
